<svg width="100%" height="100%" xmlns="http://www.w3.org/2000/svg" xmlns:xlink="http://www.w3.org/1999/xlink">
	<symbol id="icon" viewBox="0 0 328 344" fill="none" stroke="#fa9f42" stroke-width="20" stroke-miterlimit="10">
		<path d="M202.9 242.5L164 265.8l-38.9-23.2c-21.6-13.2-36.1-37-36.1-64.1 0-41.4 33.6-75 75-75s75 33.6 75 75c0 27.1-14.4 50.9-36.1 64z"/>
    <path d="M188.9 17.7l112.7 70.5s16 8.5 16 26.3v190s-4.1 43.2-47.3 24.9L164 265.8 57.8 329.3c-43.2 18.4-47.3-24.9-47.3-24.9v-190c0-17.8 16-26.3 16-26.3l112.7-70.5c15.2-9.4 34.5-9.4 49.7.1z"/>
	</symbol>
  <symbol id="text" viewBox="0 0 774.2 190.3" fill="#fa9f42">
  	<path d="M97.8 179.8c-9.3 8.3-21.8 12.5-35.3 12.5-36.8 0-62.5-29-62.5-64.5s25.8-64.5 62.5-64.5c13.5 0 26 4.5 35.3 12.7V65.3h27.5v125H97.8v-10.5zm0-29.5v-44.8c-6.5-10-17.8-16.8-32.5-16.8C43 88.8 28 106 28 127.8s15 39 37.3 39c14.7 0 26-6.8 32.5-16.5zM154 65.3h27.5v13.3c8-9.8 19-14.7 32.3-14.7 3.5 0 7.3.2 10.5 1.2v28.5C220 91.8 215 91 209.7 91c-11.5 0-22.5 5.3-28.3 15.5v83.8H154v-125zM229 127.8c0-35.8 28-64.5 64.5-64.5 21.8 0 39.3 9.7 50.5 23.2L324.2 104c-7-8.5-17.3-15-30.8-15-21 0-36.5 16.8-36.5 38.8s15.5 38.8 36.5 38.8c13.5 0 23.8-6.5 30.8-15L344 169c-11.3 13.5-28.8 23.3-50.5 23.3-36.5 0-64.5-28.8-64.5-64.5zM362.5 7.8H390v70.8c8.5-10.5 22-15.7 36.8-15.7 30 0 49 20.5 49 52.7v74.8h-27.5V120c0-19.8-10-32.3-27.5-32.3-14.8 0-25.5 8.3-30.8 19.8v82.8h-27.5V7.8zM518.5 38c-10 0-18.5-8.3-18.5-18.5 0-10 8.5-18.3 18.5-18.3 10.3 0 18.3 8.3 18.3 18.3-.1 10.3-8.1 18.5-18.3 18.5zm-13.8 27.3h27.5v125h-27.5v-125zM542.2 65.3h31.5l37.3 73.3 37.3-73.3h31.3l-68.8 127-68.6-127zM703.2 38c-10 0-18.5-8.3-18.5-18.5 0-10 8.5-18.3 18.5-18.3 10.3 0 18.3 8.3 18.3 18.3 0 10.3-8 18.5-18.3 18.5zm-13.7 27.3H717v125h-27.5v-125zM746.7 12.8h27.5v177.5h-27.5V12.8z"/>
  </symbol>

  <symbol id="desktop" viewBox="0 0 1180 344">
  	<use xlink:href="#icon" x="0" y="0" width="328" height="344" />
  	<use xlink:href="#text" x="400" y="60" width="775" height="195" />
  </symbol>

  <use class="md:hidden" xlink:href="#icon" x="0" y="0" />
  <use class="hidden md:block" xlink:href="#desktop" x="0" y="0" />
</svg>
